# xmcd CD database file
#
# Track frame offsets:
#	150
#	14365
#	30557
#	47822
#	60942
#	73225
#	83650
#	103935
#	121372
#	142612
#	163022
#	179170
#
# Disc length: 2597 seconds
#
# Revision: 0
# Processed by: cddbd v1.5.1PL0 Copyright (c) Steve Scherf et al.
# Submitted via: CDex 1.51
#
DISCID=9f0a230c
DTITLE=石川さゆり - 二十世紀の名曲たち・第三集
DYEAR=1993
DGENRE=World
TTITLE0=東京の花売娘
TTITLE1=東京ドドンパ娘
TTITLE2=カスバの女
TTITLE3=私の青空（My Blue Heaven）
TTITLE4=さくら貝の歌
TTITLE5=道頓堀行進曲
TTITLE6=すみだ川
TTITLE7=上海帰りのリル
TTITLE8=君恋し
TTITLE9=あざみの歌
TTITLE10=桑港のチャイナタウン
TTITLE11=カチューシャの歌（復活唱歌）
EXTD=YEAR: 1993
EXTT0=
EXTT1=
EXTT2=
EXTT3=
EXTT4=
EXTT5=
EXTT6=
EXTT7=
EXTT8=
EXTT9=
EXTT10=
EXTT11=
PLAYORDER=
